<mxfile host="app.diagrams.net" modified="2023-05-09T16:38:39.971Z" agent="Mozilla/5.0 (Windows NT 10.0; Win64; x64) AppleWebKit/537.36 (KHTML, like Gecko) Chrome/112.0.0.0 Safari/537.36" etag="QQg4o1GzYWoCA9fOXWKX" version="21.2.9" type="github">
  <diagram name="페이지-1" id="vJ2CU3Rfx78g7FYy2zwW">
    <mxGraphModel dx="1371" dy="804" grid="1" gridSize="10" guides="1" tooltips="1" connect="1" arrows="1" fold="1" page="1" pageScale="1" pageWidth="827" pageHeight="1169" math="0" shadow="0">
      <root>
        <mxCell id="0" />
        <mxCell id="1" parent="0" />
        <mxCell id="vowap7ELRqdRtD5AyxOH-27" style="edgeStyle=orthogonalEdgeStyle;rounded=0;orthogonalLoop=1;jettySize=auto;html=1;exitX=0.5;exitY=0.5;exitDx=0;exitDy=0;exitPerimeter=0;entryX=0;entryY=0.5;entryDx=0;entryDy=0;" edge="1" parent="1" source="vowap7ELRqdRtD5AyxOH-1" target="vowap7ELRqdRtD5AyxOH-4">
          <mxGeometry relative="1" as="geometry" />
        </mxCell>
        <mxCell id="vowap7ELRqdRtD5AyxOH-28" style="edgeStyle=orthogonalEdgeStyle;rounded=0;orthogonalLoop=1;jettySize=auto;html=1;exitX=0.5;exitY=0.5;exitDx=0;exitDy=0;exitPerimeter=0;entryX=0;entryY=0.5;entryDx=0;entryDy=0;" edge="1" parent="1" source="vowap7ELRqdRtD5AyxOH-1" target="vowap7ELRqdRtD5AyxOH-5">
          <mxGeometry relative="1" as="geometry" />
        </mxCell>
        <mxCell id="vowap7ELRqdRtD5AyxOH-29" style="edgeStyle=orthogonalEdgeStyle;rounded=0;orthogonalLoop=1;jettySize=auto;html=1;exitX=0.5;exitY=0.5;exitDx=0;exitDy=0;exitPerimeter=0;" edge="1" parent="1" source="vowap7ELRqdRtD5AyxOH-1" target="vowap7ELRqdRtD5AyxOH-3">
          <mxGeometry relative="1" as="geometry" />
        </mxCell>
        <mxCell id="vowap7ELRqdRtD5AyxOH-30" style="edgeStyle=orthogonalEdgeStyle;rounded=0;orthogonalLoop=1;jettySize=auto;html=1;exitX=0.5;exitY=0.5;exitDx=0;exitDy=0;exitPerimeter=0;entryX=0;entryY=0.5;entryDx=0;entryDy=0;" edge="1" parent="1" source="vowap7ELRqdRtD5AyxOH-1" target="vowap7ELRqdRtD5AyxOH-6">
          <mxGeometry relative="1" as="geometry" />
        </mxCell>
        <mxCell id="vowap7ELRqdRtD5AyxOH-31" style="edgeStyle=orthogonalEdgeStyle;rounded=0;orthogonalLoop=1;jettySize=auto;html=1;exitX=0.5;exitY=0.5;exitDx=0;exitDy=0;exitPerimeter=0;entryX=0;entryY=0.5;entryDx=0;entryDy=0;" edge="1" parent="1" source="vowap7ELRqdRtD5AyxOH-1" target="vowap7ELRqdRtD5AyxOH-7">
          <mxGeometry relative="1" as="geometry" />
        </mxCell>
        <mxCell id="vowap7ELRqdRtD5AyxOH-32" style="edgeStyle=orthogonalEdgeStyle;rounded=0;orthogonalLoop=1;jettySize=auto;html=1;exitX=0.5;exitY=0.5;exitDx=0;exitDy=0;exitPerimeter=0;entryX=1;entryY=0.5;entryDx=0;entryDy=0;" edge="1" parent="1" source="vowap7ELRqdRtD5AyxOH-1" target="vowap7ELRqdRtD5AyxOH-33">
          <mxGeometry relative="1" as="geometry">
            <mxPoint x="550" y="275" as="targetPoint" />
          </mxGeometry>
        </mxCell>
        <mxCell id="vowap7ELRqdRtD5AyxOH-1" value="유학 준비생 / 부모" style="shape=umlActor;verticalLabelPosition=bottom;verticalAlign=top;html=1;" vertex="1" parent="1">
          <mxGeometry x="630" y="245" width="30" height="60" as="geometry" />
        </mxCell>
        <mxCell id="vowap7ELRqdRtD5AyxOH-3" value="대학 교직원 찾기" style="ellipse;whiteSpace=wrap;html=1;" vertex="1" parent="1">
          <mxGeometry x="770" y="240" width="140" height="70" as="geometry" />
        </mxCell>
        <mxCell id="vowap7ELRqdRtD5AyxOH-4" value="AI 대화 추천" style="ellipse;whiteSpace=wrap;html=1;" vertex="1" parent="1">
          <mxGeometry x="770" y="60" width="140" height="70" as="geometry" />
        </mxCell>
        <mxCell id="vowap7ELRqdRtD5AyxOH-5" value="유학 선배 찾기" style="ellipse;whiteSpace=wrap;html=1;" vertex="1" parent="1">
          <mxGeometry x="770" y="150" width="140" height="70" as="geometry" />
        </mxCell>
        <mxCell id="vowap7ELRqdRtD5AyxOH-6" value="맘 찾기" style="ellipse;whiteSpace=wrap;html=1;" vertex="1" parent="1">
          <mxGeometry x="770" y="330" width="140" height="70" as="geometry" />
        </mxCell>
        <mxCell id="vowap7ELRqdRtD5AyxOH-7" value="생활 마스터 찾기" style="ellipse;whiteSpace=wrap;html=1;" vertex="1" parent="1">
          <mxGeometry x="770" y="420" width="140" height="70" as="geometry" />
        </mxCell>
        <mxCell id="vowap7ELRqdRtD5AyxOH-8" value="프로필 확인하기" style="ellipse;whiteSpace=wrap;html=1;" vertex="1" parent="1">
          <mxGeometry x="980" y="240" width="140" height="70" as="geometry" />
        </mxCell>
        <mxCell id="vowap7ELRqdRtD5AyxOH-9" value="대화하기" style="ellipse;whiteSpace=wrap;html=1;" vertex="1" parent="1">
          <mxGeometry x="1171" y="240" width="140" height="70" as="geometry" />
        </mxCell>
        <mxCell id="vowap7ELRqdRtD5AyxOH-10" value="로그인" style="ellipse;whiteSpace=wrap;html=1;" vertex="1" parent="1">
          <mxGeometry x="1171" y="361" width="140" height="70" as="geometry" />
        </mxCell>
        <mxCell id="vowap7ELRqdRtD5AyxOH-11" value="회원가입" style="ellipse;whiteSpace=wrap;html=1;" vertex="1" parent="1">
          <mxGeometry x="1117" y="474" width="140" height="70" as="geometry" />
        </mxCell>
        <mxCell id="vowap7ELRqdRtD5AyxOH-13" value="&amp;lt;extend&amp;gt;" style="html=1;verticalAlign=bottom;endArrow=open;dashed=1;endSize=8;edgeStyle=elbowEdgeStyle;elbow=vertical;curved=0;rounded=0;" edge="1" parent="1">
          <mxGeometry relative="1" as="geometry">
            <mxPoint x="911" y="280" as="sourcePoint" />
            <mxPoint x="980" y="280" as="targetPoint" />
          </mxGeometry>
        </mxCell>
        <mxCell id="vowap7ELRqdRtD5AyxOH-14" value="&amp;lt;extend&amp;gt;" style="html=1;verticalAlign=bottom;endArrow=open;dashed=1;endSize=8;edgeStyle=elbowEdgeStyle;elbow=vertical;curved=0;rounded=0;exitX=1;exitY=0.5;exitDx=0;exitDy=0;entryX=0;entryY=1;entryDx=0;entryDy=0;" edge="1" parent="1" source="vowap7ELRqdRtD5AyxOH-6" target="vowap7ELRqdRtD5AyxOH-8">
          <mxGeometry relative="1" as="geometry">
            <mxPoint x="921" y="290" as="sourcePoint" />
            <mxPoint x="990" y="300" as="targetPoint" />
            <Array as="points">
              <mxPoint x="960" y="365" />
            </Array>
          </mxGeometry>
        </mxCell>
        <mxCell id="vowap7ELRqdRtD5AyxOH-15" value="&amp;lt;extend&amp;gt;" style="html=1;verticalAlign=bottom;endArrow=open;dashed=1;endSize=8;edgeStyle=elbowEdgeStyle;elbow=vertical;curved=0;rounded=0;exitX=1;exitY=0.5;exitDx=0;exitDy=0;entryX=0.5;entryY=1;entryDx=0;entryDy=0;" edge="1" parent="1" source="vowap7ELRqdRtD5AyxOH-7" target="vowap7ELRqdRtD5AyxOH-8">
          <mxGeometry relative="1" as="geometry">
            <mxPoint x="920" y="375" as="sourcePoint" />
            <mxPoint x="1000" y="310" as="targetPoint" />
            <Array as="points">
              <mxPoint x="980" y="455" />
            </Array>
          </mxGeometry>
        </mxCell>
        <mxCell id="vowap7ELRqdRtD5AyxOH-16" value="&amp;lt;extend&amp;gt;" style="html=1;verticalAlign=bottom;endArrow=open;dashed=1;endSize=8;edgeStyle=elbowEdgeStyle;elbow=vertical;curved=0;rounded=0;exitX=1;exitY=0.5;exitDx=0;exitDy=0;entryX=0;entryY=0;entryDx=0;entryDy=0;" edge="1" parent="1" source="vowap7ELRqdRtD5AyxOH-5" target="vowap7ELRqdRtD5AyxOH-8">
          <mxGeometry relative="1" as="geometry">
            <mxPoint x="920" y="375" as="sourcePoint" />
            <mxPoint x="1011" y="310" as="targetPoint" />
            <Array as="points">
              <mxPoint x="960" y="185" />
            </Array>
          </mxGeometry>
        </mxCell>
        <mxCell id="vowap7ELRqdRtD5AyxOH-17" value="&amp;lt;extend&amp;gt;" style="html=1;verticalAlign=bottom;endArrow=open;dashed=1;endSize=8;edgeStyle=elbowEdgeStyle;elbow=vertical;curved=0;rounded=0;exitX=1;exitY=0.5;exitDx=0;exitDy=0;entryX=0.5;entryY=0;entryDx=0;entryDy=0;" edge="1" parent="1" source="vowap7ELRqdRtD5AyxOH-4" target="vowap7ELRqdRtD5AyxOH-8">
          <mxGeometry relative="1" as="geometry">
            <mxPoint x="920" y="195" as="sourcePoint" />
            <mxPoint x="1011" y="260" as="targetPoint" />
            <Array as="points">
              <mxPoint x="980" y="95" />
            </Array>
          </mxGeometry>
        </mxCell>
        <mxCell id="vowap7ELRqdRtD5AyxOH-18" value="&amp;lt;include&amp;gt;" style="html=1;verticalAlign=bottom;endArrow=open;dashed=1;endSize=8;edgeStyle=elbowEdgeStyle;elbow=vertical;curved=0;rounded=0;exitX=0.5;exitY=0;exitDx=0;exitDy=0;entryX=0.5;entryY=1;entryDx=0;entryDy=0;" edge="1" parent="1" source="vowap7ELRqdRtD5AyxOH-10" target="vowap7ELRqdRtD5AyxOH-9">
          <mxGeometry relative="1" as="geometry">
            <mxPoint x="921" y="290" as="sourcePoint" />
            <mxPoint x="990" y="290" as="targetPoint" />
          </mxGeometry>
        </mxCell>
        <mxCell id="vowap7ELRqdRtD5AyxOH-19" value="&amp;lt;include&amp;gt;" style="html=1;verticalAlign=bottom;endArrow=open;dashed=1;endSize=8;edgeStyle=elbowEdgeStyle;elbow=vertical;curved=0;rounded=0;entryX=0.5;entryY=1;entryDx=0;entryDy=0;exitX=0.5;exitY=0;exitDx=0;exitDy=0;" edge="1" parent="1" source="vowap7ELRqdRtD5AyxOH-11" target="vowap7ELRqdRtD5AyxOH-10">
          <mxGeometry relative="1" as="geometry">
            <mxPoint x="1240" y="470" as="sourcePoint" />
            <mxPoint x="1251" y="320" as="targetPoint" />
          </mxGeometry>
        </mxCell>
        <mxCell id="vowap7ELRqdRtD5AyxOH-22" value="&amp;lt;extend&amp;gt;" style="html=1;verticalAlign=bottom;endArrow=open;dashed=1;endSize=8;edgeStyle=elbowEdgeStyle;elbow=vertical;curved=0;rounded=0;exitX=1;exitY=0.5;exitDx=0;exitDy=0;entryX=0;entryY=0.5;entryDx=0;entryDy=0;" edge="1" parent="1" source="vowap7ELRqdRtD5AyxOH-8" target="vowap7ELRqdRtD5AyxOH-9">
          <mxGeometry relative="1" as="geometry">
            <mxPoint x="1130" y="274.5" as="sourcePoint" />
            <mxPoint x="1199" y="274.5" as="targetPoint" />
            <Array as="points">
              <mxPoint x="1140" y="275" />
            </Array>
          </mxGeometry>
        </mxCell>
        <mxCell id="vowap7ELRqdRtD5AyxOH-24" value="&amp;lt;include&amp;gt;" style="html=1;verticalAlign=bottom;endArrow=open;dashed=1;endSize=8;edgeStyle=elbowEdgeStyle;elbow=vertical;curved=0;rounded=0;exitX=0.5;exitY=0.5;exitDx=0;exitDy=0;exitPerimeter=0;entryX=0.5;entryY=0;entryDx=0;entryDy=0;" edge="1" parent="1" source="vowap7ELRqdRtD5AyxOH-25" target="vowap7ELRqdRtD5AyxOH-9">
          <mxGeometry relative="1" as="geometry">
            <mxPoint x="1400" y="280" as="sourcePoint" />
            <mxPoint x="1370" y="370" as="targetPoint" />
            <Array as="points">
              <mxPoint x="1320" y="160" />
              <mxPoint x="1400" y="280" />
            </Array>
          </mxGeometry>
        </mxCell>
        <mxCell id="vowap7ELRqdRtD5AyxOH-25" value="현지 유학생 /&lt;br&gt;맘 /&lt;br&gt;교직원 /&lt;br&gt;마스터" style="shape=umlActor;verticalLabelPosition=bottom;verticalAlign=top;html=1;" vertex="1" parent="1">
          <mxGeometry x="1300" y="111" width="30" height="60" as="geometry" />
        </mxCell>
        <mxCell id="vowap7ELRqdRtD5AyxOH-33" value="유학 CLASS 신청" style="ellipse;whiteSpace=wrap;html=1;" vertex="1" parent="1">
          <mxGeometry x="410" y="240" width="140" height="70" as="geometry" />
        </mxCell>
        <mxCell id="vowap7ELRqdRtD5AyxOH-34" value="로그인" style="ellipse;whiteSpace=wrap;html=1;" vertex="1" parent="1">
          <mxGeometry x="250" y="150" width="140" height="70" as="geometry" />
        </mxCell>
        <mxCell id="vowap7ELRqdRtD5AyxOH-35" value="&amp;lt;include&amp;gt;" style="html=1;verticalAlign=bottom;endArrow=open;dashed=1;endSize=8;edgeStyle=elbowEdgeStyle;elbow=vertical;curved=0;rounded=0;exitX=0.5;exitY=1;exitDx=0;exitDy=0;entryX=0;entryY=0;entryDx=0;entryDy=0;" edge="1" parent="1" source="vowap7ELRqdRtD5AyxOH-34" target="vowap7ELRqdRtD5AyxOH-33">
          <mxGeometry relative="1" as="geometry">
            <mxPoint x="920" y="465" as="sourcePoint" />
            <mxPoint x="1060" y="320" as="targetPoint" />
            <Array as="points">
              <mxPoint x="380" y="250" />
            </Array>
          </mxGeometry>
        </mxCell>
        <mxCell id="vowap7ELRqdRtD5AyxOH-36" value="회원가입" style="ellipse;whiteSpace=wrap;html=1;" vertex="1" parent="1">
          <mxGeometry x="360" y="60" width="140" height="70" as="geometry" />
        </mxCell>
        <mxCell id="vowap7ELRqdRtD5AyxOH-37" value="&amp;lt;extend&amp;gt;" style="html=1;verticalAlign=bottom;endArrow=open;dashed=1;endSize=8;edgeStyle=elbowEdgeStyle;elbow=vertical;curved=0;rounded=0;exitX=0.5;exitY=0;exitDx=0;exitDy=0;entryX=0;entryY=1;entryDx=0;entryDy=0;" edge="1" parent="1" source="vowap7ELRqdRtD5AyxOH-38" target="vowap7ELRqdRtD5AyxOH-33">
          <mxGeometry relative="1" as="geometry">
            <mxPoint x="260" y="341" as="sourcePoint" />
            <mxPoint x="260" y="290" as="targetPoint" />
            <Array as="points">
              <mxPoint x="370" y="300" />
            </Array>
          </mxGeometry>
        </mxCell>
        <mxCell id="vowap7ELRqdRtD5AyxOH-38" value="결제하기" style="ellipse;whiteSpace=wrap;html=1;" vertex="1" parent="1">
          <mxGeometry x="250" y="330" width="140" height="70" as="geometry" />
        </mxCell>
        <mxCell id="vowap7ELRqdRtD5AyxOH-39" value="&amp;lt;include&amp;gt;" style="html=1;verticalAlign=bottom;endArrow=open;dashed=1;endSize=8;edgeStyle=elbowEdgeStyle;elbow=vertical;curved=0;rounded=0;exitX=0.5;exitY=1;exitDx=0;exitDy=0;entryX=0.5;entryY=0;entryDx=0;entryDy=0;" edge="1" parent="1" source="vowap7ELRqdRtD5AyxOH-36" target="vowap7ELRqdRtD5AyxOH-34">
          <mxGeometry relative="1" as="geometry">
            <mxPoint x="330" y="227" as="sourcePoint" />
            <mxPoint x="420" y="262" as="targetPoint" />
            <Array as="points" />
          </mxGeometry>
        </mxCell>
        <mxCell id="vowap7ELRqdRtD5AyxOH-40" value="선배들의 Live Talk&lt;br&gt;시청" style="ellipse;whiteSpace=wrap;html=1;" vertex="1" parent="1">
          <mxGeometry x="414" y="150" width="140" height="70" as="geometry" />
        </mxCell>
        <mxCell id="vowap7ELRqdRtD5AyxOH-41" value="현지 Living Life&lt;br&gt;시청" style="ellipse;whiteSpace=wrap;html=1;" vertex="1" parent="1">
          <mxGeometry x="414" y="330" width="140" height="70" as="geometry" />
        </mxCell>
        <mxCell id="vowap7ELRqdRtD5AyxOH-42" style="edgeStyle=orthogonalEdgeStyle;rounded=0;orthogonalLoop=1;jettySize=auto;html=1;exitX=0.5;exitY=0.5;exitDx=0;exitDy=0;exitPerimeter=0;entryX=1;entryY=0.5;entryDx=0;entryDy=0;" edge="1" parent="1" source="vowap7ELRqdRtD5AyxOH-1" target="vowap7ELRqdRtD5AyxOH-41">
          <mxGeometry relative="1" as="geometry">
            <mxPoint x="560" y="285" as="targetPoint" />
            <mxPoint x="655" y="285" as="sourcePoint" />
          </mxGeometry>
        </mxCell>
        <mxCell id="vowap7ELRqdRtD5AyxOH-43" style="edgeStyle=orthogonalEdgeStyle;rounded=0;orthogonalLoop=1;jettySize=auto;html=1;exitX=0.5;exitY=0.5;exitDx=0;exitDy=0;exitPerimeter=0;entryX=1;entryY=0.5;entryDx=0;entryDy=0;" edge="1" parent="1" source="vowap7ELRqdRtD5AyxOH-1" target="vowap7ELRqdRtD5AyxOH-40">
          <mxGeometry relative="1" as="geometry">
            <mxPoint x="564" y="375" as="targetPoint" />
            <mxPoint x="655" y="285" as="sourcePoint" />
          </mxGeometry>
        </mxCell>
      </root>
    </mxGraphModel>
  </diagram>
</mxfile>
